<svg width="188" height="96" viewBox="0 0 188 96" fill="none" xmlns="http://www.w3.org/2000/svg">
<path d="M2.96485 87.1627V64.4357H18.0126V68.3974H7.76991V73.8128H17.0138V77.7745H7.76991V87.1627H2.96485ZM21.2446 87.1627V64.4357H26.0497V83.201H35.7929V87.1627H21.2446ZM58.9748 75.7992C58.9748 78.2776 58.5051 80.386 57.5655 82.1246C56.6333 83.8631 55.3609 85.1911 53.7481 86.1084C52.1427 87.0184 50.3376 87.4734 48.3327 87.4734C46.313 87.4734 44.5005 87.0147 42.8951 86.0973C41.2897 85.18 40.0209 83.852 39.0888 82.1135C38.1566 80.3749 37.6905 78.2702 37.6905 75.7992C37.6905 73.3208 38.1566 71.2124 39.0888 69.4738C40.0209 67.7353 41.2897 66.411 42.8951 65.5011C44.5005 64.5837 46.313 64.125 48.3327 64.125C50.3376 64.125 52.1427 64.5837 53.7481 65.5011C55.3609 66.411 56.6333 67.7353 57.5655 69.4738C58.5051 71.2124 58.9748 73.3208 58.9748 75.7992ZM54.1032 75.7992C54.1032 74.1938 53.8628 72.84 53.3819 71.7377C52.9084 70.6353 52.2389 69.7994 51.3733 69.2297C50.5077 68.66 49.4942 68.3752 48.3327 68.3752C47.1712 68.3752 46.1576 68.66 45.2921 69.2297C44.4265 69.7994 43.7533 70.6353 43.2724 71.7377C42.7989 72.84 42.5622 74.1938 42.5622 75.7992C42.5622 77.4046 42.7989 78.7584 43.2724 79.8607C43.7533 80.9631 44.4265 81.799 45.2921 82.3687C46.1576 82.9384 47.1712 83.2232 48.3327 83.2232C49.4942 83.2232 50.5077 82.9384 51.3733 82.3687C52.2389 81.799 52.9084 80.9631 53.3819 79.8607C53.8628 78.7584 54.1032 77.4046 54.1032 75.7992ZM62.5342 87.1627V64.4357H71.5007C73.2171 64.4357 74.6819 64.7428 75.8952 65.3568C77.1159 65.9634 78.0443 66.8253 78.6806 67.9424C79.3242 69.0521 79.646 70.3579 79.646 71.8597C79.646 73.3689 79.3205 74.6673 78.6695 75.7548C78.0184 76.8349 77.0752 77.6635 75.8397 78.2406C74.6116 78.8176 73.1246 79.1061 71.3786 79.1061H65.3751V75.2443H70.6018C71.5192 75.2443 72.2812 75.1186 72.8879 74.867C73.4945 74.6155 73.9458 74.2382 74.2417 73.7351C74.545 73.2321 74.6967 72.6069 74.6967 71.8597C74.6967 71.1051 74.545 70.4689 74.2417 69.951C73.9458 69.4331 73.4908 69.041 72.8768 68.7747C72.2701 68.501 71.5044 68.3641 70.5797 68.3641H67.3393V87.1627H62.5342ZM74.8077 76.8201L80.4561 87.1627H75.1517L69.6253 76.8201H74.8077ZM86.959 87.1627H81.8099L89.6556 64.4357H95.8478L103.682 87.1627H98.5333L92.8405 69.6292H92.6629L86.959 87.1627ZM86.6372 78.2295H98.7996V81.9803H86.6372V78.2295ZM127.744 74.978L123.416 75.2443C123.342 74.8744 123.183 74.5415 122.939 74.2456C122.695 73.9423 122.373 73.7018 121.973 73.5243C121.581 73.3393 121.111 73.2469 120.564 73.2469C119.831 73.2469 119.214 73.4022 118.711 73.7129C118.208 74.0163 117.956 74.4232 117.956 74.9336C117.956 75.3405 118.119 75.6845 118.444 75.9657C118.77 76.2468 119.328 76.4724 120.12 76.6426L123.205 77.264C124.862 77.6043 126.098 78.1518 126.911 78.9064C127.725 79.661 128.132 80.6523 128.132 81.8804C128.132 82.9975 127.803 83.9778 127.144 84.8212C126.493 85.6645 125.598 86.323 124.459 86.7965C123.327 87.2625 122.021 87.4956 120.542 87.4956C118.285 87.4956 116.488 87.0258 115.148 86.0862C113.817 85.1393 113.036 83.852 112.807 82.2244L117.457 81.9803C117.597 82.6683 117.938 83.1936 118.478 83.5561C119.018 83.9112 119.709 84.0888 120.553 84.0888C121.381 84.0888 122.047 83.9297 122.55 83.6116C123.061 83.2861 123.32 82.8681 123.327 82.3576C123.32 81.9285 123.138 81.5771 122.783 81.3034C122.428 81.0222 121.881 80.8077 121.141 80.6597L118.189 80.0716C116.525 79.7387 115.285 79.1616 114.472 78.3404C113.665 77.5193 113.262 76.4724 113.262 75.2C113.262 74.105 113.558 73.1618 114.15 72.3702C114.749 71.5786 115.589 70.9683 116.669 70.5392C117.756 70.1101 119.029 69.8955 120.486 69.8955C122.639 69.8955 124.333 70.3505 125.569 71.2605C126.812 72.1704 127.537 73.4096 127.744 74.978ZM133.872 87.4512C133.14 87.4512 132.511 87.1923 131.986 86.6744C131.468 86.1491 131.209 85.5203 131.209 84.7879C131.209 84.0629 131.468 83.4414 131.986 82.9236C132.511 82.4057 133.14 82.1468 133.872 82.1468C134.582 82.1468 135.204 82.4057 135.736 82.9236C136.269 83.4414 136.535 84.0629 136.535 84.7879C136.535 85.2761 136.41 85.7237 136.158 86.1306C135.914 86.5301 135.592 86.8519 135.193 87.0961C134.793 87.3328 134.353 87.4512 133.872 87.4512ZM140.417 87.1627V70.1175H145V73.0915H145.177C145.488 72.0336 146.01 71.2346 146.742 70.6945C147.474 70.1471 148.318 69.8733 149.272 69.8733C149.509 69.8733 149.764 69.8881 150.038 69.9177C150.312 69.9473 150.552 69.988 150.759 70.0398V74.2345C150.537 74.1679 150.23 74.1087 149.838 74.057C149.446 74.0052 149.087 73.9793 148.762 73.9793C148.066 73.9793 147.445 74.1309 146.897 74.4343C146.357 74.7302 145.928 75.1445 145.61 75.6771C145.299 76.2098 145.144 76.8238 145.144 77.5193V87.1627H140.417ZM154.013 87.4512C153.281 87.4512 152.652 87.1923 152.127 86.6744C151.609 86.1491 151.35 85.5203 151.35 84.7879C151.35 84.0629 151.609 83.4414 152.127 82.9236C152.652 82.4057 153.281 82.1468 154.013 82.1468C154.724 82.1468 155.345 82.4057 155.878 82.9236C156.41 83.4414 156.677 84.0629 156.677 84.7879C156.677 85.2761 156.551 85.7237 156.299 86.1306C156.055 86.5301 155.733 86.8519 155.334 87.0961C154.934 87.3328 154.494 87.4512 154.013 87.4512ZM168.259 87.4956C166.536 87.4956 165.045 87.1294 163.787 86.397C162.537 85.6571 161.571 84.6288 160.891 83.312C160.21 81.9877 159.87 80.4526 159.87 78.7066C159.87 76.9459 160.21 75.4071 160.891 74.0902C161.571 72.766 162.537 71.7377 163.787 71.0052C165.045 70.2654 166.536 69.8955 168.259 69.8955C169.983 69.8955 171.47 70.2654 172.72 71.0052C173.978 71.7377 174.947 72.766 175.628 74.0902C176.308 75.4071 176.649 76.9459 176.649 78.7066C176.649 80.4526 176.308 81.9877 175.628 83.312C174.947 84.6288 173.978 85.6571 172.72 86.397C171.47 87.1294 169.983 87.4956 168.259 87.4956ZM168.282 83.8335C169.066 83.8335 169.72 83.6116 170.246 83.1677C170.771 82.7164 171.167 82.1024 171.433 81.3256C171.707 80.5488 171.844 79.6647 171.844 78.6734C171.844 77.682 171.707 76.7979 171.433 76.0211C171.167 75.2443 170.771 74.6303 170.246 74.179C169.72 73.7277 169.066 73.5021 168.282 73.5021C167.49 73.5021 166.824 73.7277 166.284 74.179C165.751 74.6303 165.348 75.2443 165.074 76.0211C164.808 76.7979 164.675 77.682 164.675 78.6734C164.675 79.6647 164.808 80.5488 165.074 81.3256C165.348 82.1024 165.751 82.7164 166.284 83.1677C166.824 83.6116 167.49 83.8335 168.282 83.8335ZM182.486 87.4512C181.753 87.4512 181.125 87.1923 180.599 86.6744C180.081 86.1491 179.823 85.5203 179.823 84.7879C179.823 84.0629 180.081 83.4414 180.599 82.9236C181.125 82.4057 181.753 82.1468 182.486 82.1468C183.196 82.1468 183.818 82.4057 184.35 82.9236C184.883 83.4414 185.149 84.0629 185.149 84.7879C185.149 85.2761 185.023 85.7237 184.772 86.1306C184.528 86.5301 184.206 86.8519 183.806 87.0961C183.407 87.3328 182.967 87.4512 182.486 87.4512Z" fill="#CC0000"/>
<path d="M40.4538 25.7284V32.3864H48.3443V25.7284H40.4538ZM3.61438 27.208V61.7291H11.2094V47.8715H25.2148V61.7291H32.8098V27.208H25.2148V40.8685H11.2094V27.208H3.61438ZM53.5222 27.208V34.211H64.0266V61.7291H71.6212V34.211H76.8192C77.8259 32.67 79.5457 31.1326 82.1256 29.5613V27.208H53.5222ZM40.651 35.2958V61.7291H48.1471V35.2958H40.651Z" fill="white"/>
<path d="M95.63 0.918945C87.7144 0.924956 79.9322 2.95818 73.0252 6.82481C66.1182 10.6915 60.3165 16.2626 56.1733 23.0074C60.5739 17.5165 66.1519 13.0845 72.4953 10.0387C78.8387 6.99301 85.7853 5.41141 92.822 5.41078C98.9904 5.41075 105.098 6.62567 110.797 8.98618C116.496 11.3467 121.674 14.8066 126.036 19.1682C130.398 23.5299 133.858 28.708 136.218 34.4069C138.579 40.1057 139.794 46.2137 139.794 52.3821C139.783 57.6502 138.885 62.8788 137.139 67.8492C140.316 61.4532 141.972 54.4095 141.977 47.268C141.977 41.1815 140.779 35.1545 138.45 29.5312C136.121 23.908 132.707 18.7985 128.403 14.4946C124.099 10.1907 118.99 6.7766 113.367 4.44728C107.743 2.11797 101.717 0.919042 95.63 0.918945ZM95.3174 16.5584C94.2784 16.5584 93.1318 16.8747 91.7009 17.4106C90.27 17.9464 88.6492 18.7257 87.1002 19.7547C84.2343 21.6584 81.4985 24.5598 81.3242 28.3391C77.9574 30.3969 75.7834 32.4829 74.7943 34.8419C73.8783 37.0266 74.1378 39.3103 75.0479 41.4793C72.3187 44.3494 71.065 48.9639 72.5469 52.7953C73.3585 54.8937 75.18 56.6795 77.8542 57.347C80.3898 57.9799 83.64 57.6766 87.7421 56.2854C88.3 56.5685 89.0947 56.8888 90.2278 56.9535C91.3387 57.0169 92.6647 56.7215 93.9676 55.8888C93.5102 60.4178 91.46 61.7291 91.46 61.7291H95.3174H99.1748C99.1748 61.7291 97.1246 60.4178 96.6672 55.8888C97.9701 56.7215 99.2961 57.0169 100.407 56.9535C101.54 56.8888 102.335 56.5685 102.893 56.2854C106.995 57.6766 110.245 57.9799 112.781 57.347C115.455 56.6795 117.276 54.8937 118.088 52.7953C119.57 48.9639 118.316 44.3494 115.587 41.4793C116.497 39.3103 116.756 37.0267 115.84 34.8419C114.851 32.4829 112.677 30.3969 109.311 28.3391C109.136 24.5598 106.401 21.6584 103.535 19.7547C101.986 18.7257 100.365 17.9464 98.9339 17.4106C97.503 16.8747 96.3563 16.5584 95.3174 16.5584ZM95.3174 19.5194C95.5492 19.5194 96.6639 19.7229 97.8954 20.1841C99.127 20.6453 100.57 21.3404 101.896 22.2216C104.549 23.9841 106.563 26.3365 106.38 29.0654C106.362 29.3413 106.421 29.6167 106.551 29.8607C106.681 30.1047 106.877 30.3073 107.116 30.4458C110.633 32.4805 112.428 34.3637 113.109 35.987C113.79 37.6103 113.573 39.1434 112.524 41.1326C112.366 41.4323 112.316 41.7771 112.381 42.1094C112.447 42.4418 112.624 42.7416 112.884 42.9589C115.018 44.7425 116.347 49.0867 115.326 51.7271C114.816 53.0472 113.912 54.0125 112.064 54.4738C110.215 54.9352 107.331 54.7733 103.247 53.2998C103.023 53.219 102.783 53.1934 102.547 53.2251C102.311 53.2567 102.086 53.3448 101.892 53.4817C101.892 53.4817 101.22 53.9407 100.238 53.9968C99.5173 54.038 98.6632 53.9301 97.6693 53.0231C97.858 52.6678 98.0267 52.3322 98.1175 52.0926C99.2048 49.2232 103.464 46.3534 103.826 46.2326C104.189 46.1118 107.42 45.5982 107.42 45.5982C107.42 45.5982 104.068 44.9638 104.128 44.4806C104.189 43.9973 105.397 37.4129 105.397 37.4129C105.397 37.4129 103.041 43.6953 102.739 44.4806C102.437 45.2659 97.6644 50.0987 96.9396 49.7966C96.2147 49.4946 95.3174 32.0968 95.3174 32.0968C95.3174 32.0968 94.4201 49.4946 93.6952 49.7966C92.9703 50.0987 88.1981 45.2659 87.896 44.4806C87.5939 43.6953 85.238 37.4129 85.238 37.4129C85.238 37.4129 86.4461 43.9973 86.5064 44.4806C86.5665 44.9638 83.2144 45.5982 83.2144 45.5982C83.2144 45.5982 86.4462 46.1118 86.8086 46.2326C87.1711 46.3534 91.4299 49.2232 92.5173 52.0926C92.6081 52.3323 92.7763 52.6681 92.965 53.0235C91.9714 53.9302 91.1174 54.038 90.3966 53.9968C89.4143 53.9407 88.7429 53.4817 88.7429 53.4817C88.5483 53.3448 88.3235 53.2567 88.0877 53.2251C87.8518 53.1934 87.6118 53.219 87.3879 53.2998C83.3043 54.7733 80.4197 54.9352 78.5713 54.4738C76.7228 54.0125 75.8196 53.0472 75.309 51.7271C74.2878 49.0867 75.6166 44.7425 77.7505 42.9589C78.0106 42.7416 78.1881 42.4417 78.2537 42.1092C78.3193 41.7768 78.2689 41.4319 78.1108 41.1321C77.062 39.1429 76.8452 37.6103 77.5258 35.987C78.2064 34.3637 80.0019 32.4805 83.5187 30.4458C83.758 30.3073 83.9537 30.1047 84.0838 29.8607C84.2139 29.6167 84.273 29.3413 84.2546 29.0654C84.072 26.3365 86.0853 23.9841 88.7386 22.2216C90.0652 21.3404 91.5078 20.6453 92.7394 20.1841C93.9709 19.7229 95.0855 19.5194 95.3174 19.5194Z" fill="#84C341"/>
</svg>
